# xmcd
#
# Track frame offsets: 
#        150
#        1604
#        2247
#        3324
#        4390
#        9111
#        22412
#        38885
#        40669
#        44918
#        47315
#        47792
#        63741
#        78938
#        102629
#        104050
#        116673
#        120076
#        126130
#        149655
#        153666
#        162211
#        178404
#        179174
#        180309
#        195540
#        212407
#        213435
#        225112
#        241309
#        242052
#        243409
#        258446
#
# Disc length: 3806 seconds
#
# Revision: 0
# Processed by: cddbd v1.5.2PL0 Copyright (c) Steve Scherf et al.
# Submitted via: ExactAudioCopy v0.95b4
#
DISCID=c10edc21
DTITLE=The Beatles  - AB  Road - Complete Purple Chick Set v1.1 Jan.30
DTITLE=Various Artist - D1  FLAC
DYEAR=1900
DGENRE=
TTITLE0=Roll Announcement
TTITLE1=Slate Announcement
TTITLE2=Dialogue
TTITLE3=Roll Announcement
TTITLE4=Slate Announcement
TTITLE5=Get Back 30.01
TTITLE6=Get Back 30.02
TTITLE7=Dialogue
TTITLE8=I Want You (She's So Heavy) 30.03
TTITLE9=Dialogue
TTITLE10=Take Announcement
TTITLE11=Get Back 30.04
TTITLE12=Don't Let Me Down 30.05
TTITLE13=I've Got A Feeling 30.06
TTITLE14=One After 909 30.07
TTITLE15=One After 909 30.08
TTITLE16=Danny Boy 30.09
TTITLE17=Dig A Pony 30.10
TTITLE18=Dig A Pony 30.11
TTITLE19=God Save The Queen 30.12
TTITLE20=Warmup
TTITLE21=I've Got A Feeling 30.13
TTITLE22=A Pretty Girl Is Like A Melody 30.14
TTITLE23=Get Back 30.15
TTITLE24=Don't Let Me Down 30.16
TTITLE25=Get Back 30.17
TTITLE26=Roll Announcement
TTITLE27=God Save The Queen 30.12P
TTITLE28=I've Got A Feeling 30.13P
TTITLE29=A Pretty Girl Is Like A Melody 30.14P
TTITLE30=Get Back 30.15P
TTITLE31=Don't Let Me Down 30.16P
TTITLE32=Get Back 30.17P
EXTD=
EXTT0=
EXTT1=
EXTT2=
EXTT3=
EXTT4=
EXTT5=
EXTT6=
EXTT7=
EXTT8=
EXTT9=
EXTT10=
EXTT11=
EXTT12=
EXTT13=
EXTT14=
EXTT15=
EXTT16=
EXTT17=
EXTT18=
EXTT19=
EXTT20=
EXTT21=
EXTT22=
EXTT23=
EXTT24=
EXTT25=
EXTT26=
EXTT27=
EXTT28=
EXTT29=
EXTT30=
EXTT31=
EXTT32=
PLAYORDER=
